<svg xmlns="http://www.w3.org/2000/svg" xmlns:xlink="http://www.w3.org/1999/xlink" width="101" height="26"><defs><path id="a" d="M0 .115h17.048v25.741H0z"/></defs><g fill="none" fill-rule="evenodd"><path d="M28.703 11.481c0 1.674 1.105 2.922 2.724 2.922 1.686 0 2.736-1.302 2.736-2.922s-1.05-2.922-2.736-2.922c-1.62 0-2.724 1.248-2.724 2.922m8.393 0c0 3.184-2.2 5.58-5.132 5.58-1.433 0-2.418-.546-3.119-1.378v5.28H26V6.183h2.79v1.171c.7-.874 1.709-1.454 3.164-1.454 2.921 0 5.143 2.396 5.143 5.581m3.924 0c0 1.62 1.062 2.922 2.737 2.922 1.63 0 2.736-1.248 2.736-2.922 0-1.674-1.106-2.922-2.736-2.922-1.675 0-2.737 1.302-2.737 2.922zm5.385 5.307v-1.17c-.7.864-1.718 1.444-3.174 1.444-2.932 0-5.132-2.397-5.132-5.581 0-3.185 2.2-5.581 5.132-5.581 1.456 0 2.473.58 3.174 1.455v-1.17h2.79v10.603h-2.79zm7.297-5.307c0 1.674 1.105 2.922 2.724 2.922 1.686 0 2.736-1.302 2.736-2.922s-1.05-2.922-2.736-2.922c-1.62 0-2.724 1.248-2.724 2.922m8.393 0c0 3.184-2.2 5.58-5.132 5.58-1.433 0-2.418-.546-3.119-1.378v5.28H51V6.183h2.79v1.171c.7-.874 1.709-1.454 3.164-1.454 2.921 0 5.143 2.396 5.143 5.581m3.824 0c0 1.62 1.062 2.922 2.737 2.922 1.63 0 2.736-1.248 2.736-2.922 0-1.674-1.106-2.922-2.736-2.922-1.675 0-2.737 1.302-2.737 2.922zm5.385 5.307v-1.17c-.7.864-1.718 1.444-3.174 1.444C65.2 17.062 63 14.665 63 11.48c0-3.184 2.2-5.58 5.132-5.58 1.456 0 2.473.58 3.174 1.455v-1.17h2.79v10.603h-2.79zm6.626-5.471c0 1.531 1.04 2.779 2.67 2.779 1.588 0 2.66-1.204 2.66-2.78 0-1.586-1.072-2.79-2.66-2.79-1.63 0-2.67 1.248-2.67 2.79m5.231-3.95V6.184h2.802v9.526c0 3.415-2.221 5.46-5.723 5.46-1.675 0-3.437-.437-4.64-1.28l1.017-2.33c1.061.7 2.222 1.083 3.502 1.083 1.773 0 3.02-.974 3.02-2.812v-.541c-.733.887-1.783 1.433-3.261 1.433-2.582 0-4.88-2.155-4.88-5.405C75 8.056 77.298 5.9 79.88 5.9c1.488 0 2.55.558 3.283 1.466m6.747 4.115c0 1.718 1.204 2.922 2.813 2.922 1.62 0 2.824-1.204 2.824-2.922 0-1.718-1.204-2.922-2.824-2.922-1.609 0-2.812 1.204-2.812 2.922m8.557 0c0 3.196-2.44 5.58-5.745 5.58-3.294 0-5.723-2.384-5.723-5.58S89.429 5.9 92.723 5.9c3.304 0 5.745 2.385 5.745 5.581" fill="#50505F"/><g transform="translate(0 .029)"><mask id="b" fill="#fff"><use xlink:href="#a"/></mask><path fill="#00A2FF" d="M17.048 11.935c-1.881 0-5.42.02-5.42.02V.593h-.83C6.331.592 5.041.64 3.032.115c0 0 .044 1.973 2.1 3.045-1.825 1.763-2.366 4.375-2.366 7.1 0 2.726-.255 4.786-.586 6.398C1.444 20.244 0 23.031 0 23.031a8.192 8.192 0 0 0 3.423.091v2.734c7.39 0 13.625-4.346 13.625-12.432v-1.49" mask="url(#b)"/></g><path fill="#FFC600" d="M11.628 9.116v5.4c2.181 0 4.13-.994 5.42-2.553l-5.42-2.847"/><path fill="#FAFDFD" d="M11.628 14.516a5.86 5.86 0 1 1 0-11.72v11.72z"/><path fill="#50505F" d="M10.304 7.761a1.355 1.355 0 1 1-2.71 0 1.355 1.355 0 0 1 2.71 0"/><path fill="#1EDA69" d="M14.986 1.356A8.002 8.002 0 0 0 11.628.62v8.496h8.03V8.65a8.029 8.029 0 0 0-4.672-7.294"/><path fill="#0087FF" d="M9.962 17.754a8.537 8.537 0 0 1-6.537 5.408l-.003 2.72a8.3 8.3 0 0 0 6.55-8.113"/></g></svg>