<svg xmlns="http://www.w3.org/2000/svg" xmlns:xlink="http://www.w3.org/1999/xlink" width="123" height="33"><defs><path id="a" d="M0 .143h20.883v31.893H0z"/></defs><g fill="none" fill-rule="evenodd"><path fill="#50505F" d="M35.947 14.7c0 2.074 1.354 3.62 3.337 3.62 2.065 0 3.352-1.613 3.352-3.62s-1.287-3.62-3.352-3.62c-1.983 0-3.337 1.545-3.337 3.62m10.282 0c0 3.945-2.694 6.915-6.287 6.915-1.756 0-2.963-.679-3.82-1.709v6.541h-3.486V8.137h3.419v1.451c.857-1.085 2.09-1.803 3.873-1.803 3.58 0 6.301 2.969 6.301 6.915m4.97 0c0 2.007 1.3 3.62 3.352 3.62 1.997 0 3.351-1.546 3.351-3.62 0-2.075-1.354-3.62-3.351-3.62-2.052 0-3.352 1.613-3.352 3.62zm6.595 6.575v-1.45c-.857 1.071-2.104 1.79-3.888 1.79-3.591 0-6.286-2.97-6.286-6.915 0-3.946 2.695-6.915 6.286-6.915 1.784 0 3.03.718 3.888 1.803V8.137h3.42v13.138h-3.42zm9.031-6.575c0 2.074 1.353 3.62 3.337 3.62 2.065 0 3.352-1.613 3.352-3.62s-1.287-3.62-3.352-3.62c-1.984 0-3.337 1.545-3.337 3.62m10.282 0c0 3.945-2.695 6.915-6.288 6.915-1.755 0-2.962-.679-3.82-1.709v6.541h-3.485V8.137h3.418v1.451c.858-1.085 2.091-1.803 3.874-1.803 3.579 0 6.3 2.969 6.3 6.915m4.97 0c0 2.007 1.3 3.62 3.352 3.62 1.998 0 3.352-1.546 3.352-3.62 0-2.075-1.354-3.62-3.352-3.62-2.052 0-3.352 1.613-3.352 3.62zm6.596 6.575v-1.45c-.858 1.071-2.104 1.79-3.888 1.79-3.592 0-6.286-2.97-6.286-6.915 0-3.946 2.694-6.915 6.286-6.915 1.784 0 3.03.718 3.888 1.803V8.137h3.419v13.138h-3.42zm8.708-6.779c0 1.898 1.274 3.444 3.272 3.444 1.945 0 3.258-1.492 3.258-3.444 0-1.966-1.313-3.457-3.258-3.457-1.998 0-3.271 1.546-3.271 3.457m6.408-4.895V8.137h3.432V19.94c0 4.23-2.721 6.765-7.01 6.765-2.052 0-4.21-.542-5.685-1.586l1.246-2.888c1.3.868 2.722 1.342 4.29 1.342 2.172 0 3.7-1.206 3.7-3.484v-.67c-.898 1.098-2.185 1.776-3.995 1.776-3.163 0-5.978-2.671-5.978-6.698 0-4.04 2.815-6.711 5.978-6.711 1.823 0 3.123.691 4.022 1.816m8.697 5.098c0 2.128 1.474 3.62 3.445 3.62 1.984 0 3.459-1.492 3.459-3.62 0-2.13-1.475-3.62-3.46-3.62-1.97 0-3.444 1.49-3.444 3.62m10.482 0c0 3.959-2.99 6.915-7.037 6.915-4.036 0-7.01-2.956-7.01-6.915 0-3.96 2.974-6.915 7.01-6.915 4.048 0 7.037 2.955 7.037 6.915"/><g transform="translate(0 .035)"><mask id="b" fill="#fff"><use xlink:href="#a"/></mask><path fill="#00A2FF" d="M20.883 14.787c-2.304 0-6.639.026-6.639.026V.733h-1.016c-5.473 0-7.053.06-9.513-.59 0 0 .053 2.444 2.571 3.772C4.051 6.1 3.39 9.337 3.39 12.713c0 3.376-.313 5.929-.719 7.926C1.768 25.083 0 28.535 0 28.535a9.921 9.921 0 0 0 4.193.113v3.388c9.053 0 16.69-5.385 16.69-15.404v-1.845" mask="url(#b)"/></g><path fill="#FFC600" d="M14.245 11.295v6.69a8.553 8.553 0 0 0 6.638-3.162l-6.638-3.528"/><path fill="#FAFDFD" d="M14.245 17.986c-3.965 0-7.18-3.25-7.18-7.26 0-4.011 3.215-7.262 7.18-7.262v14.522z"/><path fill="#50505F" d="M12.622 9.616a1.67 1.67 0 0 1-1.66 1.68 1.67 1.67 0 0 1-1.659-1.68 1.67 1.67 0 0 1 1.66-1.678c.916 0 1.66.751 1.66 1.678"/><path fill="#1EDA69" d="M18.357 1.68a9.701 9.701 0 0 0-4.112-.912v10.527h9.836v-.577a9.956 9.956 0 0 0-5.724-9.038"/><path fill="#0087FF" d="M12.204 21.997c-1.285 3.463-4.316 6.063-8.009 6.7l-.003 3.372c4.586-.995 8.024-5.118 8.024-10.053"/></g></svg>